<?xml version="1.0" encoding="utf-8"?>
<!DOCTYPE svg PUBLIC "-//W3C//DTD SVG 1.1//EN" "http://www.w3.org/Graphics/SVG/1.1/DTD/svg11.dtd">
<svg version="1.1" id="Layer_1" xmlns="http://www.w3.org/2000/svg" xmlns:xlink="http://www.w3.org/1999/xlink" x="0px" y="0px" width="1000px" height="1000px" viewBox="0 0 1000 1000" enable-background="new 0 0 1000 1000" xml:space="preserve">
<g>
	<circle cx="250" cy="750" r="75"/>
	<circle cx="750" cy="250" r="75"/>
	<circle cx="250" cy="250" r="75"/>
	<circle cx="749.998" cy="750" r="75"/>
	<path d="M900,0H569.711L394.366,175.345C405.95,197.7,412.5,223.084,412.5,250c0,89.746-72.754,162.5-162.5,162.5
		S87.5,339.746,87.5,250S160.254,87.5,250,87.5c26.387,0,51.301,6.295,73.333,17.457L428.289,0H100C50,0,0,50,0,100v800
		c0,50,50,100,100,100h800c8.484,0,16.968-1.443,25.208-4.079l-101.21-101.21c-22.195,11.372-47.348,17.789-74,17.789
		c-89.746,0-162.5-72.754-162.5-162.5s72.754-162.5,162.5-162.5s162.5,72.754,162.5,162.5c0,26.652-6.417,51.806-17.789,74
		L995.92,925.212c2.636-8.241,4.08-16.726,4.08-25.212V100C1000,50,950,0,900,0z M750,412.5c-26.652,0-51.806-6.417-74-17.789
		L394.711,676c11.372,22.195,17.789,47.348,17.789,74c0,89.746-72.754,162.5-162.5,162.5S87.5,839.746,87.5,750
		S160.254,587.5,250,587.5c26.652,0,51.806,6.417,74,17.789L605.289,324c-11.372-22.195-17.789-47.348-17.789-74
		c0-89.746,72.754-162.5,162.5-162.5S912.5,160.254,912.5,250S839.746,412.5,750,412.5z"/>
</g>
</svg>
